<mxfile host="app.diagrams.net" modified="2021-08-25T07:14:40.956Z" agent="5.0 (Windows NT 10.0; WOW64) AppleWebKit/537.36 (KHTML, like Gecko) Chrome/72.0.3626.121 Safari/537.36" etag="k4N1eS0PjIatO3-dmCy0" version="14.9.8" type="github">
  <diagram id="dEx86dSYwrzgcJbfhVJY" name="第 1 页">
    <mxGraphModel dx="942" dy="583" grid="1" gridSize="10" guides="1" tooltips="1" connect="1" arrows="1" fold="1" page="1" pageScale="1" pageWidth="827" pageHeight="1169" math="0" shadow="0">
      <root>
        <mxCell id="0" />
        <mxCell id="1" parent="0" />
        <mxCell id="qBNgjx7pjF_n1ZrfmN2p-3" value="" style="edgeStyle=orthogonalEdgeStyle;rounded=0;orthogonalLoop=1;jettySize=auto;html=1;" parent="1" source="qBNgjx7pjF_n1ZrfmN2p-1" target="qBNgjx7pjF_n1ZrfmN2p-2" edge="1">
          <mxGeometry relative="1" as="geometry" />
        </mxCell>
        <mxCell id="qBNgjx7pjF_n1ZrfmN2p-1" value="开始" style="ellipse;whiteSpace=wrap;html=1;" parent="1" vertex="1">
          <mxGeometry x="237" y="150" width="106" height="40" as="geometry" />
        </mxCell>
        <mxCell id="qBNgjx7pjF_n1ZrfmN2p-5" value="" style="edgeStyle=orthogonalEdgeStyle;rounded=0;orthogonalLoop=1;jettySize=auto;html=1;" parent="1" source="qBNgjx7pjF_n1ZrfmN2p-2" target="qBNgjx7pjF_n1ZrfmN2p-4" edge="1">
          <mxGeometry relative="1" as="geometry" />
        </mxCell>
        <mxCell id="qBNgjx7pjF_n1ZrfmN2p-10" value="" style="edgeStyle=orthogonalEdgeStyle;rounded=0;orthogonalLoop=1;jettySize=auto;html=1;" parent="1" source="qBNgjx7pjF_n1ZrfmN2p-2" target="qBNgjx7pjF_n1ZrfmN2p-9" edge="1">
          <mxGeometry relative="1" as="geometry" />
        </mxCell>
        <mxCell id="qBNgjx7pjF_n1ZrfmN2p-2" value="异步执行" style="rhombus;whiteSpace=wrap;html=1;" parent="1" vertex="1">
          <mxGeometry x="250" y="230" width="80" height="80" as="geometry" />
        </mxCell>
        <mxCell id="qBNgjx7pjF_n1ZrfmN2p-8" value="" style="edgeStyle=orthogonalEdgeStyle;rounded=0;orthogonalLoop=1;jettySize=auto;html=1;" parent="1" source="qBNgjx7pjF_n1ZrfmN2p-4" target="qBNgjx7pjF_n1ZrfmN2p-7" edge="1">
          <mxGeometry relative="1" as="geometry" />
        </mxCell>
        <mxCell id="qBNgjx7pjF_n1ZrfmN2p-4" value="动态数据源，&lt;br&gt;多线程执行" style="shape=parallelogram;perimeter=parallelogramPerimeter;whiteSpace=wrap;html=1;fixedSize=1;" parent="1" vertex="1">
          <mxGeometry x="230" y="350" width="120" height="40" as="geometry" />
        </mxCell>
        <mxCell id="qBNgjx7pjF_n1ZrfmN2p-6" value="N" style="text;html=1;align=center;verticalAlign=middle;resizable=0;points=[];autosize=1;strokeColor=none;" parent="1" vertex="1">
          <mxGeometry x="293" y="310" width="20" height="20" as="geometry" />
        </mxCell>
        <mxCell id="qBNgjx7pjF_n1ZrfmN2p-7" value="结束" style="ellipse;whiteSpace=wrap;html=1;" parent="1" vertex="1">
          <mxGeometry x="230" y="470" width="120" height="40" as="geometry" />
        </mxCell>
        <mxCell id="qBNgjx7pjF_n1ZrfmN2p-13" value="" style="edgeStyle=orthogonalEdgeStyle;rounded=0;orthogonalLoop=1;jettySize=auto;html=1;" parent="1" source="qBNgjx7pjF_n1ZrfmN2p-9" target="qBNgjx7pjF_n1ZrfmN2p-12" edge="1">
          <mxGeometry relative="1" as="geometry" />
        </mxCell>
        <mxCell id="qBNgjx7pjF_n1ZrfmN2p-9" value="遍历所有数据源" style="shape=parallelogram;perimeter=parallelogramPerimeter;whiteSpace=wrap;html=1;fixedSize=1;" parent="1" vertex="1">
          <mxGeometry x="390" y="250" width="143" height="40" as="geometry" />
        </mxCell>
        <mxCell id="qBNgjx7pjF_n1ZrfmN2p-11" value="Y" style="text;html=1;align=center;verticalAlign=middle;resizable=0;points=[];autosize=1;strokeColor=none;" parent="1" vertex="1">
          <mxGeometry x="343" y="240" width="20" height="20" as="geometry" />
        </mxCell>
        <mxCell id="qBNgjx7pjF_n1ZrfmN2p-15" value="" style="edgeStyle=orthogonalEdgeStyle;rounded=0;orthogonalLoop=1;jettySize=auto;html=1;" parent="1" source="qBNgjx7pjF_n1ZrfmN2p-12" edge="1">
          <mxGeometry relative="1" as="geometry">
            <mxPoint x="290" y="440" as="targetPoint" />
            <Array as="points">
              <mxPoint x="665" y="440" />
            </Array>
          </mxGeometry>
        </mxCell>
        <mxCell id="qBNgjx7pjF_n1ZrfmN2p-12" value="&lt;span style=&quot;font-family: &amp;#34;consolas&amp;#34; , &amp;#34;bitstream vera sans mono&amp;#34; , &amp;#34;courier new&amp;#34; , &amp;#34;courier&amp;#34; , monospace ; font-size: 14px ; text-align: left ; background-color: rgb(255 , 255 , 255)&quot;&gt;message设置数据源，&lt;br&gt;多线程执行发送&lt;br&gt;&lt;/span&gt;" style="shape=parallelogram;perimeter=parallelogramPerimeter;whiteSpace=wrap;html=1;fixedSize=1;" parent="1" vertex="1">
          <mxGeometry x="570" y="250" width="190" height="40" as="geometry" />
        </mxCell>
      </root>
    </mxGraphModel>
  </diagram>
</mxfile>
